<?xml version="1.0" encoding="utf-8"?>
<!-- Generator: Adobe Illustrator 28.3.0, SVG Export Plug-In . SVG Version: 6.00 Build 0)  -->
<svg version="1.1" id="Capa_1" xmlns="http://www.w3.org/2000/svg" xmlns:xlink="http://www.w3.org/1999/xlink" x="0px" y="0px"
	 viewBox="0 0 100 50" style="enable-background:new 0 0 100 50;" xml:space="preserve">
<style type="text/css">
	.st0{fill:#77543B;}
</style>
<g>
	<g>
		<path class="st0" d="M11.66,25.88c-0.64-0.3-1.07-0.7-1.29-1.18l0.77-0.26c0.41,1.03,1.32,1.55,2.73,1.55
			c0.69,0,1.24-0.17,1.67-0.51c0.42-0.34,0.64-0.78,0.64-1.33c0-0.38-0.1-0.69-0.29-0.91c-0.19-0.23-0.44-0.4-0.74-0.53
			c-0.3-0.13-0.75-0.28-1.35-0.45c-0.68-0.19-1.26-0.39-1.74-0.6c-0.48-0.21-0.89-0.49-1.22-0.86c-0.33-0.36-0.49-0.82-0.49-1.37
			c0-0.5,0.18-0.95,0.53-1.33c0.36-0.38,0.82-0.67,1.39-0.87c0.57-0.2,1.18-0.3,1.81-0.3c0.81,0,1.52,0.15,2.15,0.46
			c0.63,0.3,1.06,0.7,1.28,1.18l-0.77,0.26c-0.4-1.03-1.3-1.55-2.69-1.55c-0.69,0-1.24,0.17-1.67,0.5
			c-0.43,0.33-0.64,0.77-0.64,1.32c0,0.38,0.1,0.68,0.29,0.9s0.43,0.39,0.72,0.5c0.29,0.11,0.75,0.26,1.37,0.44
			c0.69,0.2,1.27,0.41,1.75,0.62c0.48,0.22,0.88,0.51,1.21,0.88c0.33,0.37,0.49,0.83,0.49,1.37c0,0.5-0.18,0.95-0.53,1.33
			c-0.36,0.38-0.82,0.67-1.39,0.87c-0.57,0.2-1.18,0.3-1.81,0.3C13.03,26.34,12.3,26.18,11.66,25.88z"/>
		<path class="st0" d="M21.74,17.43h-3.16v-0.35h7.73v0.35h-3.16v8.76h-1.41V17.43z"/>
		<path class="st0" d="M27.84,17.08h6.65v0.35h-5.24v3.88h4.03v0.35h-4.03v4.18h5.24v0.35h-6.65V17.08z"/>
		<path class="st0" d="M35.72,17.08h1.47l3.33,8.19l3.28-8.19h0.39l-3.64,9.07v0.04h-1.12L35.72,17.08z"/>
		<path class="st0" d="M45.56,17.08h6.65v0.35h-5.24v3.88H51v0.35h-4.03v4.18h5.24v0.35h-6.65V17.08z"/>
		<path class="st0" d="M53.96,17.08h1.35l5.96,7.43v-7.43h0.35v9.11H61l-6.69-8.29v8.29h-0.35V17.08z"/>
		<path class="st0" d="M66.63,17.08h1.16l3.71,9.11h-1.47l-1.24-3.03h-4.2l-1.22,3.03h-0.39L66.63,17.08z M68.65,22.81l-1.98-4.87
			l-1.95,4.87H68.65z"/>
		<path class="st0" d="M74.66,25.73c-0.77-0.39-1.37-0.95-1.8-1.66c-0.43-0.71-0.64-1.52-0.64-2.42c0-0.9,0.22-1.71,0.65-2.41
			c0.43-0.71,1.03-1.26,1.8-1.66c0.77-0.4,1.64-0.6,2.62-0.6c0.55,0,1.07,0.08,1.57,0.23c0.5,0.15,0.92,0.36,1.28,0.61
			c0.35,0.26,0.6,0.53,0.74,0.83l-0.74,0.26c-0.24-0.55-0.6-0.96-1.07-1.24c-0.47-0.28-1.02-0.42-1.63-0.42
			c-0.69,0-1.31,0.19-1.88,0.58c-0.57,0.39-1.02,0.91-1.35,1.58c-0.33,0.67-0.5,1.41-0.5,2.21c0,0.82,0.16,1.57,0.49,2.24
			c0.33,0.67,0.78,1.2,1.35,1.59c0.57,0.39,1.2,0.58,1.88,0.58c0.49,0,0.94-0.08,1.37-0.25c0.43-0.17,0.76-0.39,0.98-0.67v-2.69
			h1.41v0.91c0,0.58-0.17,1.1-0.5,1.55c-0.33,0.45-0.8,0.8-1.39,1.06c-0.59,0.26-1.26,0.38-2,0.38
			C76.3,26.32,75.42,26.13,74.66,25.73z"/>
		<path class="st0" d="M82.91,17.08h6.65v0.35h-5.24v3.88h4.03v0.35h-4.03v4.18h5.24v0.35h-6.65V17.08z"/>
	</g>
	<g>
		<path class="st0" d="M36.15,34.77c-0.24-0.08-0.43-0.18-0.56-0.31l0.18-0.38c0.13,0.12,0.3,0.21,0.5,0.29
			c0.2,0.07,0.41,0.11,0.63,0.11c0.28,0,0.49-0.05,0.63-0.14c0.14-0.1,0.21-0.22,0.21-0.38c0-0.12-0.04-0.21-0.11-0.29
			c-0.08-0.07-0.17-0.13-0.28-0.17c-0.11-0.04-0.27-0.08-0.48-0.13c-0.26-0.06-0.46-0.12-0.62-0.19c-0.16-0.06-0.29-0.16-0.4-0.29
			c-0.11-0.13-0.17-0.3-0.17-0.52c0-0.18,0.05-0.35,0.14-0.49c0.1-0.15,0.24-0.26,0.44-0.35c0.2-0.09,0.44-0.13,0.73-0.13
			c0.2,0,0.4,0.03,0.6,0.08c0.2,0.05,0.36,0.13,0.5,0.22l-0.16,0.39c-0.14-0.09-0.3-0.16-0.46-0.21c-0.16-0.05-0.32-0.07-0.48-0.07
			c-0.28,0-0.48,0.05-0.62,0.15c-0.14,0.1-0.21,0.23-0.21,0.39c0,0.12,0.04,0.21,0.12,0.29c0.08,0.07,0.17,0.13,0.29,0.17
			c0.12,0.04,0.27,0.08,0.47,0.13c0.26,0.06,0.46,0.12,0.62,0.19c0.16,0.06,0.29,0.16,0.4,0.28c0.11,0.13,0.17,0.3,0.17,0.51
			c0,0.18-0.05,0.34-0.15,0.49c-0.1,0.15-0.25,0.26-0.44,0.35c-0.2,0.09-0.44,0.13-0.73,0.13C36.64,34.89,36.39,34.85,36.15,34.77z"
			/>
		<path class="st0" d="M38.94,34.79c-0.07-0.06-0.1-0.14-0.1-0.24c0-0.09,0.03-0.17,0.1-0.24c0.06-0.06,0.14-0.1,0.23-0.1
			c0.09,0,0.17,0.03,0.23,0.09c0.06,0.06,0.09,0.14,0.09,0.24s-0.03,0.18-0.1,0.24c-0.06,0.06-0.14,0.1-0.23,0.1
			C39.08,34.88,39,34.85,38.94,34.79z"/>
		<path class="st0" d="M42.67,34h-1.82l-0.38,0.85h-0.5l1.55-3.42h0.48l1.55,3.42h-0.51L42.67,34z M42.5,33.61l-0.74-1.67
			l-0.74,1.67H42.5z"/>
		<path class="st0" d="M44.13,34.79c-0.07-0.06-0.1-0.14-0.1-0.24c0-0.09,0.03-0.17,0.1-0.24c0.06-0.06,0.14-0.1,0.23-0.1
			c0.09,0,0.17,0.03,0.23,0.09c0.06,0.06,0.09,0.14,0.09,0.24s-0.03,0.18-0.1,0.24c-0.06,0.06-0.14,0.1-0.23,0.1
			C44.28,34.88,44.2,34.85,44.13,34.79z"/>
		<path class="st0" d="M46.94,31.44h1.44c0.36,0,0.68,0.07,0.96,0.21c0.28,0.14,0.5,0.34,0.65,0.6c0.15,0.26,0.23,0.56,0.23,0.89
			s-0.08,0.63-0.23,0.89c-0.15,0.26-0.37,0.46-0.65,0.6c-0.28,0.14-0.6,0.21-0.96,0.21h-1.44V31.44z M48.35,34.43
			c0.28,0,0.52-0.05,0.73-0.16c0.21-0.11,0.37-0.26,0.49-0.45c0.11-0.19,0.17-0.42,0.17-0.67c0-0.25-0.06-0.48-0.17-0.67
			c-0.11-0.19-0.28-0.34-0.49-0.45c-0.21-0.11-0.45-0.16-0.73-0.16h-0.92v2.57H48.35z"/>
		<path class="st0" d="M53.55,34.43v0.42h-2.48v-3.42h2.41v0.42h-1.92v1.05h1.71v0.41h-1.71v1.1H53.55z"/>
		<path class="st0" d="M56.45,34.66c-0.27-0.15-0.49-0.36-0.65-0.62c-0.16-0.26-0.23-0.56-0.23-0.9c0-0.33,0.08-0.63,0.23-0.9
			c0.16-0.26,0.37-0.47,0.65-0.62c0.28-0.15,0.59-0.23,0.93-0.23c0.27,0,0.51,0.04,0.73,0.13c0.22,0.09,0.41,0.22,0.57,0.4
			l-0.32,0.31c-0.26-0.27-0.58-0.41-0.96-0.41c-0.25,0-0.48,0.06-0.69,0.17c-0.2,0.11-0.37,0.27-0.48,0.47
			c-0.12,0.2-0.17,0.42-0.17,0.67s0.06,0.47,0.17,0.67c0.12,0.2,0.28,0.36,0.48,0.47c0.2,0.11,0.43,0.17,0.69,0.17
			c0.38,0,0.7-0.14,0.96-0.41l0.32,0.31c-0.16,0.18-0.35,0.31-0.57,0.4c-0.22,0.09-0.47,0.14-0.73,0.14
			C57.03,34.89,56.72,34.82,56.45,34.66z"/>
		<path class="st0" d="M59.35,34.79c-0.07-0.06-0.1-0.14-0.1-0.24c0-0.09,0.03-0.17,0.1-0.24c0.07-0.06,0.14-0.1,0.23-0.1
			s0.17,0.03,0.23,0.09c0.06,0.06,0.09,0.14,0.09,0.24s-0.03,0.18-0.1,0.24c-0.06,0.06-0.14,0.1-0.23,0.1
			C59.49,34.88,59.41,34.85,59.35,34.79z"/>
		<path class="st0" d="M63.53,31.44l-1.5,3.42h-0.48l-1.5-3.42h0.53l1.23,2.81l1.24-2.81H63.53z"/>
		<path class="st0" d="M63.76,34.79c-0.07-0.06-0.1-0.14-0.1-0.24c0-0.09,0.03-0.17,0.1-0.24c0.06-0.06,0.14-0.1,0.23-0.1
			c0.09,0,0.17,0.03,0.23,0.09c0.06,0.06,0.09,0.14,0.09,0.24s-0.03,0.18-0.1,0.24c-0.06,0.06-0.14,0.1-0.23,0.1
			C63.91,34.88,63.83,34.85,63.76,34.79z"/>
	</g>
	<g>
		<rect x="1.49" y="2.65" class="st0" width="1.48" height="24.69"/>
		
			<rect x="13.1" y="-9.7" transform="matrix(4.550766e-11 -1 1 4.550766e-11 11.1894 16.4811)" class="st0" width="1.48" height="24.69"/>
	</g>
	<g>
		
			<rect x="97.05" y="23.48" transform="matrix(-1 -8.978564e-11 8.978564e-11 -1 195.5759 71.6436)" class="st0" width="1.48" height="24.69"/>
		
			<rect x="85.44" y="35.82" transform="matrix(-1.352937e-10 1 -1 -1.352937e-10 134.3492 -38.0154)" class="st0" width="1.48" height="24.69"/>
	</g>
</g>
</svg>
